<svg xmlns="http://www.w3.org/2000/svg" xmlns:xlink="http://www.w3.org/1999/xlink" width="1000" zoomAndPan="magnify" viewBox="0 0 375 374.999991" height="1000" preserveAspectRatio="xMidYMid meet" version="1.0"><defs><g/><clipPath id="id1"><path d="M 203 161 L 253 161 L 253 208.5625 L 203 208.5625 Z M 203 161 " clip-rule="nonzero"/></clipPath><clipPath id="id2"><path d="M 90.105469 77.3125 L 285.105469 77.3125 L 285.105469 208.5625 L 90.105469 208.5625 Z M 90.105469 77.3125 " clip-rule="nonzero"/></clipPath><clipPath id="id3"><path d="M 106.386719 189.8125 L 90.140625 180.4375 L 90.140625 124.1875 L 106.386719 114.8125 L 138.871094 133.5625 L 155.117188 142.9375 L 171.359375 152.3125 L 187.605469 161.6875 L 203.847656 152.3125 L 220.09375 142.9375 L 236.335938 133.5625 L 236.335938 96.0625 L 220.09375 105.4375 L 203.847656 114.8125 L 187.605469 124.1875 L 171.359375 114.8125 L 155.117188 105.4375 L 138.871094 96.0625 L 138.871094 114.8125 L 122.628906 105.4375 L 122.628906 86.6875 L 138.871094 77.3125 L 155.117188 86.6875 L 171.359375 96.0625 L 187.605469 105.4375 L 203.847656 96.0625 L 220.09375 86.6875 L 236.335938 77.3125 L 252.582031 86.6875 L 252.582031 124.1875 L 268.824219 114.8125 L 285.070312 124.1875 L 285.070312 180.4375 L 268.824219 189.8125 L 268.824219 133.5625 L 252.582031 142.9375 L 236.335938 152.3125 L 220.09375 161.6875 L 203.847656 171.0625 L 187.605469 180.4375 L 171.359375 171.0625 L 155.117188 161.6875 L 138.871094 152.3125 L 138.871094 189.8125 L 155.117188 180.4375 L 171.359375 189.8125 L 155.117188 199.1875 L 138.871094 208.5625 L 122.628906 199.1875 L 122.628906 142.9375 L 106.386719 133.5625 Z M 106.386719 189.8125 " clip-rule="evenodd"/></clipPath><linearGradient x1="842.672054" gradientTransform="matrix(0.114764, 0, 0, 0.114722, 90.141398, 77.312318)" y1="-74.260551" x2="731.44987" gradientUnits="userSpaceOnUse" y2="1207.538083" id="id4"><stop stop-opacity="1" stop-color="rgb(30.282593%, 78.320312%, 56.993103%)" offset="0"/><stop stop-opacity="1" stop-color="rgb(30.163574%, 78.282166%, 57.138062%)" offset="0.0078125"/><stop stop-opacity="1" stop-color="rgb(29.925537%, 78.205872%, 57.426453%)" offset="0.015625"/><stop stop-opacity="1" stop-color="rgb(29.685974%, 78.129578%, 57.71637%)" offset="0.0234375"/><stop stop-opacity="1" stop-color="rgb(29.447937%, 78.053284%, 58.004761%)" offset="0.03125"/><stop stop-opacity="1" stop-color="rgb(29.2099%, 77.975464%, 58.294678%)" offset="0.0390625"/><stop stop-opacity="1" stop-color="rgb(28.970337%, 77.89917%, 58.583069%)" offset="0.046875"/><stop stop-opacity="1" stop-color="rgb(28.7323%, 77.822876%, 58.87146%)" offset="0.0546875"/><stop stop-opacity="1" stop-color="rgb(28.494263%, 77.746582%, 59.161377%)" offset="0.0625"/><stop stop-opacity="1" stop-color="rgb(28.256226%, 77.670288%, 59.449768%)" offset="0.0703125"/><stop stop-opacity="1" stop-color="rgb(28.016663%, 77.593994%, 59.739685%)" offset="0.078125"/><stop stop-opacity="1" stop-color="rgb(27.778625%, 77.516174%, 60.028076%)" offset="0.0859375"/><stop stop-opacity="1" stop-color="rgb(27.540588%, 77.43988%, 60.316467%)" offset="0.09375"/><stop stop-opacity="1" stop-color="rgb(27.302551%, 77.363586%, 60.606384%)" offset="0.101563"/><stop stop-opacity="1" stop-color="rgb(27.062988%, 77.287292%, 60.894775%)" offset="0.109375"/><stop stop-opacity="1" stop-color="rgb(26.824951%, 77.210999%, 61.184692%)" offset="0.114119"/><stop stop-opacity="1" stop-color="rgb(26.705933%, 77.172852%, 61.329651%)" offset="0.117188"/><stop stop-opacity="1" stop-color="rgb(26.586914%, 77.134705%, 61.473083%)" offset="0.125"/><stop stop-opacity="1" stop-color="rgb(26.347351%, 77.056885%, 61.761475%)" offset="0.132813"/><stop stop-opacity="1" stop-color="rgb(26.109314%, 76.980591%, 62.051392%)" offset="0.140625"/><stop stop-opacity="1" stop-color="rgb(25.871277%, 76.904297%, 62.339783%)" offset="0.148438"/><stop stop-opacity="1" stop-color="rgb(25.63324%, 76.828003%, 62.6297%)" offset="0.15625"/><stop stop-opacity="1" stop-color="rgb(25.393677%, 76.751709%, 62.918091%)" offset="0.164063"/><stop stop-opacity="1" stop-color="rgb(25.15564%, 76.675415%, 63.208008%)" offset="0.171875"/><stop stop-opacity="1" stop-color="rgb(24.917603%, 76.597595%, 63.496399%)" offset="0.179688"/><stop stop-opacity="1" stop-color="rgb(24.679565%, 76.521301%, 63.78479%)" offset="0.1875"/><stop stop-opacity="1" stop-color="rgb(24.440002%, 76.445007%, 64.074707%)" offset="0.195313"/><stop stop-opacity="1" stop-color="rgb(24.201965%, 76.368713%, 64.363098%)" offset="0.203125"/><stop stop-opacity="1" stop-color="rgb(23.963928%, 76.292419%, 64.653015%)" offset="0.210937"/><stop stop-opacity="1" stop-color="rgb(23.724365%, 76.216125%, 64.941406%)" offset="0.21875"/><stop stop-opacity="1" stop-color="rgb(23.486328%, 76.138306%, 65.229797%)" offset="0.226563"/><stop stop-opacity="1" stop-color="rgb(23.248291%, 76.062012%, 65.519714%)" offset="0.234375"/><stop stop-opacity="1" stop-color="rgb(23.010254%, 75.985718%, 65.808105%)" offset="0.242187"/><stop stop-opacity="1" stop-color="rgb(22.770691%, 75.909424%, 66.098022%)" offset="0.25"/><stop stop-opacity="1" stop-color="rgb(22.532654%, 75.83313%, 66.386414%)" offset="0.257813"/><stop stop-opacity="1" stop-color="rgb(22.294617%, 75.756836%, 66.676331%)" offset="0.265625"/><stop stop-opacity="1" stop-color="rgb(22.055054%, 75.679016%, 66.964722%)" offset="0.273437"/><stop stop-opacity="1" stop-color="rgb(21.817017%, 75.602722%, 67.253113%)" offset="0.28125"/><stop stop-opacity="1" stop-color="rgb(21.578979%, 75.526428%, 67.54303%)" offset="0.289063"/><stop stop-opacity="1" stop-color="rgb(21.340942%, 75.450134%, 67.831421%)" offset="0.296875"/><stop stop-opacity="1" stop-color="rgb(21.101379%, 75.37384%, 68.121338%)" offset="0.304687"/><stop stop-opacity="1" stop-color="rgb(20.863342%, 75.297546%, 68.409729%)" offset="0.3125"/><stop stop-opacity="1" stop-color="rgb(20.625305%, 75.219727%, 68.69812%)" offset="0.320312"/><stop stop-opacity="1" stop-color="rgb(20.387268%, 75.143433%, 68.988037%)" offset="0.328125"/><stop stop-opacity="1" stop-color="rgb(20.147705%, 75.067139%, 69.276428%)" offset="0.335937"/><stop stop-opacity="1" stop-color="rgb(19.909668%, 74.990845%, 69.566345%)" offset="0.34375"/><stop stop-opacity="1" stop-color="rgb(19.671631%, 74.914551%, 69.854736%)" offset="0.351562"/><stop stop-opacity="1" stop-color="rgb(19.432068%, 74.838257%, 70.143127%)" offset="0.359375"/><stop stop-opacity="1" stop-color="rgb(19.194031%, 74.760437%, 70.433044%)" offset="0.367188"/><stop stop-opacity="1" stop-color="rgb(18.955994%, 74.684143%, 70.721436%)" offset="0.375"/><stop stop-opacity="1" stop-color="rgb(18.717957%, 74.607849%, 71.011353%)" offset="0.382812"/><stop stop-opacity="1" stop-color="rgb(18.478394%, 74.531555%, 71.299744%)" offset="0.390625"/><stop stop-opacity="1" stop-color="rgb(18.240356%, 74.455261%, 71.589661%)" offset="0.398438"/><stop stop-opacity="1" stop-color="rgb(18.002319%, 74.378967%, 71.878052%)" offset="0.40625"/><stop stop-opacity="1" stop-color="rgb(17.764282%, 74.301147%, 72.166443%)" offset="0.414063"/><stop stop-opacity="1" stop-color="rgb(17.524719%, 74.224854%, 72.45636%)" offset="0.421875"/><stop stop-opacity="1" stop-color="rgb(17.286682%, 74.14856%, 72.744751%)" offset="0.429688"/><stop stop-opacity="1" stop-color="rgb(17.048645%, 74.072266%, 73.034668%)" offset="0.4375"/><stop stop-opacity="1" stop-color="rgb(16.809082%, 73.995972%, 73.323059%)" offset="0.445313"/><stop stop-opacity="1" stop-color="rgb(16.571045%, 73.919678%, 73.61145%)" offset="0.453125"/><stop stop-opacity="1" stop-color="rgb(16.333008%, 73.841858%, 73.901367%)" offset="0.460937"/><stop stop-opacity="1" stop-color="rgb(16.094971%, 73.765564%, 74.189758%)" offset="0.46875"/><stop stop-opacity="1" stop-color="rgb(15.855408%, 73.68927%, 74.479675%)" offset="0.476563"/><stop stop-opacity="1" stop-color="rgb(15.617371%, 73.612976%, 74.768066%)" offset="0.484375"/><stop stop-opacity="1" stop-color="rgb(15.379333%, 73.536682%, 75.057983%)" offset="0.492187"/><stop stop-opacity="1" stop-color="rgb(15.141296%, 73.460388%, 75.346375%)" offset="0.5"/><stop stop-opacity="1" stop-color="rgb(14.901733%, 73.382568%, 75.634766%)" offset="0.507813"/><stop stop-opacity="1" stop-color="rgb(14.663696%, 73.306274%, 75.924683%)" offset="0.515625"/><stop stop-opacity="1" stop-color="rgb(14.425659%, 73.22998%, 76.213074%)" offset="0.523437"/><stop stop-opacity="1" stop-color="rgb(14.186096%, 73.153687%, 76.502991%)" offset="0.53125"/><stop stop-opacity="1" stop-color="rgb(13.948059%, 73.077393%, 76.791382%)" offset="0.539062"/><stop stop-opacity="1" stop-color="rgb(13.710022%, 73.001099%, 77.079773%)" offset="0.546875"/><stop stop-opacity="1" stop-color="rgb(13.471985%, 72.923279%, 77.36969%)" offset="0.554687"/><stop stop-opacity="1" stop-color="rgb(13.232422%, 72.846985%, 77.658081%)" offset="0.5625"/><stop stop-opacity="1" stop-color="rgb(12.994385%, 72.770691%, 77.947998%)" offset="0.570312"/><stop stop-opacity="1" stop-color="rgb(12.756348%, 72.694397%, 78.236389%)" offset="0.578125"/><stop stop-opacity="1" stop-color="rgb(12.518311%, 72.618103%, 78.52478%)" offset="0.585937"/><stop stop-opacity="1" stop-color="rgb(12.278748%, 72.541809%, 78.814697%)" offset="0.59375"/><stop stop-opacity="1" stop-color="rgb(12.04071%, 72.463989%, 79.103088%)" offset="0.601562"/><stop stop-opacity="1" stop-color="rgb(11.802673%, 72.387695%, 79.393005%)" offset="0.609375"/><stop stop-opacity="1" stop-color="rgb(11.56311%, 72.311401%, 79.681396%)" offset="0.617188"/><stop stop-opacity="1" stop-color="rgb(11.325073%, 72.235107%, 79.971313%)" offset="0.625"/><stop stop-opacity="1" stop-color="rgb(11.087036%, 72.158813%, 80.259705%)" offset="0.632812"/><stop stop-opacity="1" stop-color="rgb(10.848999%, 72.08252%, 80.548096%)" offset="0.640625"/><stop stop-opacity="1" stop-color="rgb(10.609436%, 72.0047%, 80.838013%)" offset="0.648438"/><stop stop-opacity="1" stop-color="rgb(10.371399%, 71.928406%, 81.126404%)" offset="0.65625"/><stop stop-opacity="1" stop-color="rgb(10.133362%, 71.852112%, 81.416321%)" offset="0.664063"/><stop stop-opacity="1" stop-color="rgb(9.895325%, 71.775818%, 81.704712%)" offset="0.671875"/><stop stop-opacity="1" stop-color="rgb(9.655762%, 71.699524%, 81.993103%)" offset="0.679688"/><stop stop-opacity="1" stop-color="rgb(9.417725%, 71.62323%, 82.28302%)" offset="0.6875"/><stop stop-opacity="1" stop-color="rgb(9.179688%, 71.54541%, 82.571411%)" offset="0.695313"/><stop stop-opacity="1" stop-color="rgb(8.940125%, 71.469116%, 82.861328%)" offset="0.703125"/><stop stop-opacity="1" stop-color="rgb(8.702087%, 71.392822%, 83.149719%)" offset="0.710938"/><stop stop-opacity="1" stop-color="rgb(8.46405%, 71.316528%, 83.439636%)" offset="0.71875"/><stop stop-opacity="1" stop-color="rgb(8.226013%, 71.240234%, 83.728027%)" offset="0.726563"/><stop stop-opacity="1" stop-color="rgb(7.98645%, 71.16394%, 84.016418%)" offset="0.734375"/><stop stop-opacity="1" stop-color="rgb(7.748413%, 71.086121%, 84.306335%)" offset="0.742187"/><stop stop-opacity="1" stop-color="rgb(7.510376%, 71.009827%, 84.594727%)" offset="0.75"/><stop stop-opacity="1" stop-color="rgb(7.272339%, 70.933533%, 84.884644%)" offset="0.757813"/><stop stop-opacity="1" stop-color="rgb(7.032776%, 70.857239%, 85.173035%)" offset="0.765625"/><stop stop-opacity="1" stop-color="rgb(6.794739%, 70.780945%, 85.461426%)" offset="0.773437"/><stop stop-opacity="1" stop-color="rgb(6.556702%, 70.704651%, 85.751343%)" offset="0.78125"/><stop stop-opacity="1" stop-color="rgb(6.317139%, 70.626831%, 86.039734%)" offset="0.789062"/><stop stop-opacity="1" stop-color="rgb(6.079102%, 70.550537%, 86.329651%)" offset="0.796875"/><stop stop-opacity="1" stop-color="rgb(5.841064%, 70.474243%, 86.618042%)" offset="0.804687"/><stop stop-opacity="1" stop-color="rgb(5.603027%, 70.397949%, 86.906433%)" offset="0.8125"/><stop stop-opacity="1" stop-color="rgb(5.363464%, 70.321655%, 87.19635%)" offset="0.820312"/><stop stop-opacity="1" stop-color="rgb(5.125427%, 70.245361%, 87.484741%)" offset="0.828125"/><stop stop-opacity="1" stop-color="rgb(4.88739%, 70.167542%, 87.774658%)" offset="0.835937"/><stop stop-opacity="1" stop-color="rgb(4.647827%, 70.091248%, 88.063049%)" offset="0.84375"/><stop stop-opacity="1" stop-color="rgb(4.40979%, 70.014954%, 88.352966%)" offset="0.851562"/><stop stop-opacity="1" stop-color="rgb(4.171753%, 69.93866%, 88.641357%)" offset="0.859375"/><stop stop-opacity="1" stop-color="rgb(3.933716%, 69.862366%, 88.929749%)" offset="0.867188"/><stop stop-opacity="1" stop-color="rgb(3.694153%, 69.786072%, 89.219666%)" offset="0.875"/><stop stop-opacity="1" stop-color="rgb(3.456116%, 69.708252%, 89.508057%)" offset="0.882812"/><stop stop-opacity="1" stop-color="rgb(3.218079%, 69.631958%, 89.797974%)" offset="0.885881"/><stop stop-opacity="1" stop-color="rgb(3.09906%, 69.593811%, 89.942932%)" offset="0.890625"/><stop stop-opacity="1" stop-color="rgb(2.980042%, 69.555664%, 90.086365%)" offset="0.898438"/><stop stop-opacity="1" stop-color="rgb(2.740479%, 69.47937%, 90.374756%)" offset="0.90625"/><stop stop-opacity="1" stop-color="rgb(2.502441%, 69.403076%, 90.664673%)" offset="0.914063"/><stop stop-opacity="1" stop-color="rgb(2.264404%, 69.326782%, 90.953064%)" offset="0.921875"/><stop stop-opacity="1" stop-color="rgb(2.024841%, 69.248962%, 91.242981%)" offset="0.929688"/><stop stop-opacity="1" stop-color="rgb(1.786804%, 69.172668%, 91.531372%)" offset="0.9375"/><stop stop-opacity="1" stop-color="rgb(1.548767%, 69.096375%, 91.821289%)" offset="0.945313"/><stop stop-opacity="1" stop-color="rgb(1.31073%, 69.020081%, 92.10968%)" offset="0.953125"/><stop stop-opacity="1" stop-color="rgb(1.071167%, 68.943787%, 92.398071%)" offset="0.960938"/><stop stop-opacity="1" stop-color="rgb(0.83313%, 68.867493%, 92.687988%)" offset="0.96875"/><stop stop-opacity="1" stop-color="rgb(0.595093%, 68.789673%, 92.976379%)" offset="0.976563"/><stop stop-opacity="1" stop-color="rgb(0.357056%, 68.713379%, 93.266296%)" offset="0.984375"/><stop stop-opacity="1" stop-color="rgb(0.119019%, 68.637085%, 93.554688%)" offset="1"/></linearGradient></defs><g clip-path="url(#id1)"><path fill="rgb(96.469116%, 99.21875%, 100%)" d="M 236.335938 189.8125 L 236.335938 171.0625 L 252.582031 161.6875 L 252.582031 199.1875 L 236.335938 208.5625 L 220.09375 199.1875 L 203.847656 189.8125 L 220.09375 180.4375 Z M 236.335938 189.8125 " fill-opacity="1" fill-rule="evenodd"/></g><g clip-path="url(#id2)"><g clip-path="url(#id3)"><path fill="url(#id4)" d="M 90.140625 77.3125 L 90.140625 208.5625 L 285.070312 208.5625 L 285.070312 77.3125 Z M 90.140625 77.3125 " fill-rule="nonzero"/></g></g><g fill="rgb(96.469116%, 99.21875%, 100%)" fill-opacity="1"><g transform="translate(42.984056, 259.343361)"><g><path d="M 10.078125 0 L 2.0625 0 L 2.0625 -33.015625 L 11.875 -33.015625 L 17.21875 -15.375 L 22.578125 -33.015625 L 32.390625 -33.015625 L 32.390625 0 L 24.421875 0 L 24.421875 -20.984375 L 20.3125 -7.140625 L 14.140625 -7.140625 L 10.078125 -20.875 Z M 10.078125 0 "/></g></g></g><g fill="rgb(96.469116%, 99.21875%, 100%)" fill-opacity="1"><g transform="translate(77.43671, 259.343361)"><g><path d="M 15.78125 -33.015625 L 24.78125 -33.015625 L 24.78125 -6.375 C 24.78125 -2.125 22.257812 0 17.21875 0 L 9.609375 0 C 4.578125 0 2.0625 -2.125 2.0625 -6.375 L 2.0625 -33.015625 L 11.0625 -33.015625 L 11.0625 -7.5625 C 11.0625 -6.800781 11.488281 -6.421875 12.34375 -6.421875 L 14.5 -6.421875 C 15.351562 -6.421875 15.78125 -6.800781 15.78125 -7.5625 Z M 15.78125 -33.015625 "/></g></g></g><g fill="rgb(96.469116%, 99.21875%, 100%)" fill-opacity="1"><g transform="translate(104.278928, 259.343361)"><g><path d="M 18.875 0 L 17.84375 -4.9375 L 9.921875 -4.9375 L 8.84375 0 L 0 0 L 8.484375 -33.015625 L 19.4375 -33.015625 L 27.921875 0 Z M 11.3125 -11.3125 L 16.453125 -11.3125 L 13.9375 -23.1875 Z M 11.3125 -11.3125 "/></g></g></g><g fill="rgb(96.469116%, 99.21875%, 100%)" fill-opacity="1"><g transform="translate(132.201011, 259.343361)"><g><path d="M 10.078125 0 L 2.0625 0 L 2.0625 -33.015625 L 11.875 -33.015625 L 17.21875 -15.375 L 22.578125 -33.015625 L 32.390625 -33.015625 L 32.390625 0 L 24.421875 0 L 24.421875 -20.984375 L 20.3125 -7.140625 L 14.140625 -7.140625 L 10.078125 -20.875 Z M 10.078125 0 "/></g></g></g><g fill="rgb(96.469116%, 99.21875%, 100%)" fill-opacity="1"><g transform="translate(166.653664, 259.343361)"><g><path d="M 15.890625 -20.625 L 15.890625 -25.96875 C 15.890625 -26.71875 15.460938 -27.09375 14.609375 -27.09375 L 10.90625 -27.09375 L 10.90625 -19.484375 L 14.609375 -19.484375 C 15.460938 -19.484375 15.890625 -19.863281 15.890625 -20.625 Z M 15.890625 -7.046875 L 15.890625 -12.4375 C 15.890625 -13.195312 15.460938 -13.578125 14.609375 -13.578125 L 10.90625 -13.578125 L 10.90625 -5.90625 L 14.609375 -5.90625 C 15.460938 -5.90625 15.890625 -6.285156 15.890625 -7.046875 Z M 2.0625 -33.015625 L 17.171875 -33.015625 C 22.210938 -33.015625 24.734375 -30.890625 24.734375 -26.640625 L 24.734375 -22.421875 C 24.734375 -19.441406 23.910156 -17.503906 22.265625 -16.609375 C 23.222656 -16.203125 23.875 -15.578125 24.21875 -14.734375 C 24.5625 -13.890625 24.734375 -12.75 24.734375 -11.3125 L 24.734375 -6.375 C 24.734375 -2.125 22.210938 0 17.171875 0 L 2.0625 0 Z M 2.0625 -33.015625 "/></g></g></g><g fill="rgb(96.469116%, 99.21875%, 100%)" fill-opacity="1"><g transform="translate(193.18735, 259.343361)"><g><path d="M 18.875 0 L 17.84375 -4.9375 L 9.921875 -4.9375 L 8.84375 0 L 0 0 L 8.484375 -33.015625 L 19.4375 -33.015625 L 27.921875 0 Z M 11.3125 -11.3125 L 16.453125 -11.3125 L 13.9375 -23.1875 Z M 11.3125 -11.3125 "/></g></g></g><g fill="rgb(96.469116%, 99.21875%, 100%)" fill-opacity="1"><g transform="translate(221.109432, 259.343361)"><g><path d="M 14.703125 -7.5625 L 14.703125 -12.234375 C 14.703125 -12.992188 14.273438 -13.375 13.421875 -13.375 L 8.484375 -13.375 C 5.941406 -13.375 4.148438 -13.929688 3.109375 -15.046875 C 2.066406 -16.160156 1.546875 -17.757812 1.546875 -19.84375 L 1.546875 -26.640625 C 1.546875 -30.890625 4.046875 -33.015625 9.046875 -33.015625 L 16.09375 -33.015625 C 21.101562 -33.015625 23.609375 -30.890625 23.609375 -26.640625 L 23.609375 -22.671875 L 14.609375 -22.671875 L 14.609375 -25.453125 C 14.609375 -26.203125 14.175781 -26.578125 13.3125 -26.578125 L 11.828125 -26.578125 C 10.972656 -26.578125 10.546875 -26.203125 10.546875 -25.453125 L 10.546875 -20.5625 C 10.546875 -19.8125 10.972656 -19.4375 11.828125 -19.4375 L 16.65625 -19.4375 C 19.195312 -19.4375 21.003906 -18.90625 22.078125 -17.84375 C 23.160156 -16.78125 23.703125 -15.21875 23.703125 -13.15625 L 23.703125 -6.375 C 23.703125 -2.125 21.203125 0 16.203125 0 L 9.203125 0 C 4.160156 0 1.640625 -2.125 1.640625 -6.375 L 1.640625 -10.328125 L 10.640625 -10.328125 L 10.640625 -7.5625 C 10.640625 -6.800781 11.070312 -6.421875 11.9375 -6.421875 L 13.421875 -6.421875 C 14.273438 -6.421875 14.703125 -6.800781 14.703125 -7.5625 Z M 14.703125 -7.5625 "/></g></g></g><g fill="rgb(96.469116%, 99.21875%, 100%)" fill-opacity="1"><g transform="translate(246.357569, 259.343361)"><g><path d="M 2.0625 0 L 2.0625 -8.4375 L 10.90625 -8.4375 L 10.90625 0 Z M 2.0625 0 "/></g></g></g><g fill="rgb(96.469116%, 99.21875%, 100%)" fill-opacity="1"><g transform="translate(259.315874, 259.343361)"><g><path d="M 17.125 -33.015625 L 25.34375 -33.015625 L 25.34375 0 L 17.640625 0 L 10.28125 -17.328125 L 10.28125 0 L 2.0625 0 L 2.0625 -33.015625 L 9.765625 -33.015625 L 17.125 -15.375 Z M 17.125 -33.015625 "/></g></g></g><g fill="rgb(96.469116%, 99.21875%, 100%)" fill-opacity="1"><g transform="translate(286.723739, 259.343361)"><g><path d="M 11.0625 -6.421875 L 22.3125 -6.421875 L 22.3125 0 L 2.0625 0 L 2.0625 -33.015625 L 21.859375 -33.015625 L 21.859375 -26.578125 L 11.0625 -26.578125 L 11.0625 -19.84375 L 20.359375 -19.84375 L 20.359375 -13.421875 L 11.0625 -13.421875 Z M 11.0625 -6.421875 "/></g></g></g><g fill="rgb(96.469116%, 99.21875%, 100%)" fill-opacity="1"><g transform="translate(309.812147, 259.343361)"><g><path d="M 21.953125 -33.015625 L 21.953125 -26.578125 L 15.578125 -26.578125 L 15.578125 0 L 6.578125 0 L 6.578125 -26.578125 L 0.25 -26.578125 L 0.25 -33.015625 Z M 21.953125 -33.015625 "/></g></g></g></svg>
